# xmcd
# 
# Track frame offsets:
#     182
#     19362
#     38280
# 
# Disc length: 774
# 
# Revision: 5
# Processed by: cddbd v1.5.2PL0 Copyright (c) Steve Scherf et al.
# Submitted via: fre:ac v1.0.17
# 
DISCID=17030403
DTITLE=Gene - Where Are They Now?
DYEAR=1997
DGENRE=
TTITLE0=Where Are They Now?
TTITLE1=Cast Out in the Seventies
TTITLE2=Nightswimming
EXTD=
EXTT0=
EXTT1=
EXTT2=
PLAYORDER=
